<svg width="29" height="33" viewBox="0 0 29 33" fill="none" xmlns="http://www.w3.org/2000/svg">
<g clip-path="url(#clip0_3_17)">
<path d="M29 16.5C29 20.8761 27.4723 25.0729 24.753 28.1673C22.0338 31.2616 18.3456 33 14.5 33C10.6544 33 6.96623 31.2616 4.24695 28.1673C1.52767 25.0729 0 20.8761 0 16.5C0 12.1239 1.52767 7.92709 4.24695 4.83274C6.96623 1.73839 10.6544 0 14.5 0C18.3456 0 22.0338 1.73839 24.753 4.83274C27.4723 7.92709 29 12.1239 29 16.5ZM15.0202 12.1811C13.6101 12.8494 10.7898 14.2312 6.56306 16.3267C5.87794 16.6361 5.51725 16.9414 5.48462 17.2384C5.43025 17.7396 5.98306 17.9376 6.73525 18.2078L7.05244 18.3212C7.79194 18.5955 8.78881 18.9152 9.30538 18.9276C9.77662 18.9399 10.3004 18.7213 10.8786 18.2676C14.8281 15.2336 16.8671 13.7012 16.994 13.6682C17.0846 13.6434 17.2115 13.6146 17.2949 13.7012C17.3801 13.7858 17.371 13.9487 17.3619 13.992C17.3076 14.2581 15.138 16.5516 14.0161 17.7396C13.6662 18.1108 13.4179 18.3728 13.3672 18.4326C13.2554 18.5625 13.1418 18.6904 13.0264 18.8162C12.3377 19.5711 11.8229 20.1362 13.0536 21.0602C13.6463 21.5057 14.1212 21.8707 14.5942 22.2379C15.109 22.638 15.6237 23.0361 16.2908 23.5352C16.4593 23.6589 16.6224 23.793 16.7801 23.9209C17.3801 24.4076 17.922 24.8449 18.5872 24.7747C18.9751 24.7335 19.3756 24.321 19.5786 23.0835C20.0589 20.1609 21.0033 13.8311 21.2208 11.2221C21.234 11.0052 21.2261 10.7873 21.1972 10.5724C21.1801 10.399 21.1064 10.2392 20.9906 10.1248C20.8256 9.99527 20.629 9.92815 20.4287 9.933C19.8849 9.94331 19.0457 10.2754 15.0202 12.1811Z" fill="black"/>
<g clip-path="url(#clip1_3_17)">
<path d="M14.5 0C10.6552 0 6.96453 1.73946 4.24805 4.8327C1.52876 7.92716 0.000753252 12.1238 0 16.5C0 20.8743 1.5293 25.0741 4.24805 28.1673C6.96453 31.2605 10.6552 33 14.5 33C18.3448 33 22.0355 31.2605 24.752 28.1673C27.4707 25.0741 29 20.8743 29 16.5C29 12.1257 27.4707 7.92593 24.752 4.8327C22.0355 1.73946 18.3448 0 14.5 0Z" fill="url(#paint0_linear_3_17)"/>
<path d="M7.08232 16.3929C11.31 14.2974 14.1284 12.9158 15.5376 12.2484C19.5659 10.3423 20.4019 10.0113 20.9479 10.0001C21.068 9.99791 21.3354 10.0317 21.5098 10.1922C21.6548 10.3275 21.6956 10.5106 21.716 10.6391C21.7341 10.7675 21.759 11.0601 21.7386 11.2885C21.5211 13.8976 20.5764 20.2289 20.0961 23.1512C19.8944 24.3877 19.4934 24.8023 19.106 24.8427C18.2632 24.9309 17.6243 24.2096 16.8086 23.6014C15.5331 22.6493 14.8126 22.0568 13.5733 21.1279C12.1415 20.0544 13.0704 19.4643 13.886 18.5C14.099 18.2476 17.8101 14.4075 17.8803 14.0592C17.8893 14.0157 17.8984 13.8532 17.8123 13.7676C17.7285 13.6818 17.6039 13.7112 17.5133 13.7344C17.3841 13.7674 15.3473 15.3009 11.3961 18.3345C10.8183 18.7867 10.295 19.0072 9.82372 18.9956C9.30716 18.9829 8.31029 18.6625 7.56943 18.3887C6.66318 18.0527 5.94044 17.8751 6.00388 17.3046C6.0356 17.0076 6.39583 16.7036 7.08232 16.3929Z" fill="white"/>
</g>
</g>
<defs>
<linearGradient id="paint0_linear_3_17" x1="1450" y1="0" x2="1450" y2="3300" gradientUnits="userSpaceOnUse">
<stop stop-color="#2AABEE"/>
<stop offset="1" stop-color="#229ED9"/>
</linearGradient>
<clipPath id="clip0_3_17">
<rect width="29" height="33" fill="white"/>
</clipPath>
<clipPath id="clip1_3_17">
<rect width="29" height="33" fill="white"/>
</clipPath>
</defs>
</svg>
