<svg width="67" height="41" viewBox="0 0 67 41" fill="none" xmlns="http://www.w3.org/2000/svg">
<path d="M14.6563 18.2222L52.3438 18.2222C53.5163 18.2222 54.4375 19.2244 54.4375 20.5C54.4375 21.7755 53.5163 22.7778 52.3438 22.7778L14.6563 22.7778C13.4838 22.7778 12.5625 21.7755 12.5625 20.5C12.5625 19.2244 13.4838 18.2222 14.6563 18.2222Z" fill="black"/>
<path d="M25.125 2.27777C25.3996 2.27413 25.6719 2.33305 25.9243 2.45073C26.1767 2.56842 26.4037 2.74227 26.5906 2.96111C27.4281 3.87222 27.4281 5.28444 26.5906 6.19555L13.4 20.5455L26.5906 34.8955C27.4281 35.8067 27.4281 37.2189 26.5906 38.13C25.7531 39.0411 24.455 39.0411 23.6175 38.13L8.96125 22.1855C8.12375 21.2744 8.12375 19.8622 8.96125 18.9511L23.6175 3.00666C24.0363 2.55111 24.5806 2.32333 25.0831 2.32333L25.125 2.27777Z" fill="black"/>
</svg>
