<svg width="67" height="41" viewBox="0 0 67 41" fill="none" xmlns="http://www.w3.org/2000/svg">
<path d="M52.3438 22.7778H14.6562C13.4837 22.7778 12.5625 21.7756 12.5625 20.5C12.5625 19.2245 13.4837 18.2222 14.6562 18.2222H52.3438C53.5163 18.2222 54.4375 19.2245 54.4375 20.5C54.4375 21.7756 53.5163 22.7778 52.3438 22.7778Z" fill="black"/>
<path d="M41.875 38.7222C41.6004 38.7259 41.3281 38.667 41.0757 38.5493C40.8233 38.4316 40.5963 38.2577 40.4094 38.0389C39.5719 37.1278 39.5719 35.7156 40.4094 34.8045L53.6 20.4545L40.4094 6.10445C39.5719 5.19334 39.5719 3.78112 40.4094 2.87001C41.2469 1.9589 42.545 1.9589 43.3825 2.87001L58.0387 18.8145C58.8763 19.7256 58.8763 21.1378 58.0387 22.0489L43.3825 37.9933C42.9638 38.4489 42.4194 38.6767 41.9169 38.6767L41.875 38.7222Z" fill="black"/>
</svg>
