<svg width="29" height="33" viewBox="0 0 29 33" fill="none" xmlns="http://www.w3.org/2000/svg">
<g clip-path="url(#clip0_3_34)">
<path d="M22.2031 0H6.79688C3.04306 0 0 3.4628 0 7.73438V25.2656C0 29.5372 3.04306 33 6.79688 33H22.2031C25.9569 33 29 29.5372 29 25.2656V7.73438C29 3.4628 25.9569 0 22.2031 0Z" fill="url(#paint0_radial_3_34)"/>
<path d="M22.2031 0H6.79688C3.04306 0 0 3.4628 0 7.73438V25.2656C0 29.5372 3.04306 33 6.79688 33H22.2031C25.9569 33 29 29.5372 29 25.2656V7.73438C29 3.4628 25.9569 0 22.2031 0Z" fill="url(#paint1_radial_3_34)"/>
<path d="M14.501 3.60938C11.4245 3.60938 11.0384 3.62471 9.83009 3.68723C8.6241 3.75014 7.80089 3.96735 7.08064 4.28613C6.33548 4.61536 5.70348 5.05583 5.07387 5.77255C4.44368 6.48914 4.0566 7.20831 3.76638 8.05587C3.48544 8.87571 3.29433 9.81286 3.24007 11.1846C3.18604 12.5596 3.17188 12.9992 3.17188 16.5001C3.17188 20.0011 3.18547 20.4391 3.2403 21.814C3.2958 23.1864 3.48668 24.1231 3.7666 24.9427C4.05615 25.7907 4.44323 26.5098 5.07307 27.2263C5.70258 27.9434 6.33457 28.3849 7.07917 28.7141C7.79998 29.0329 8.62331 29.2501 9.82907 29.313C11.0374 29.3755 11.4233 29.3909 14.4997 29.3909C17.5765 29.3909 17.9614 29.3755 19.1697 29.313C20.3757 29.2501 21.1998 29.0329 21.9206 28.7141C22.6654 28.3849 23.2965 27.9434 23.9259 27.2263C24.5561 26.5098 24.9431 25.7907 25.2334 24.9431C25.5118 24.1231 25.7031 23.1861 25.7597 21.8143C25.814 20.4394 25.8281 20.0011 25.8281 16.5001C25.8281 12.9992 25.814 12.5599 25.7597 11.1848C25.7031 9.81247 25.5118 8.87584 25.2334 8.05625C24.9431 7.20831 24.5561 6.48914 23.9259 5.77255C23.2958 5.05557 22.6657 4.6151 21.9199 4.28626C21.1978 3.96735 20.3741 3.75001 19.1681 3.68723C17.9597 3.62471 17.575 3.60938 14.4975 3.60938H14.501ZM13.4848 5.93239C13.7864 5.93188 14.123 5.93239 14.501 5.93239C17.5257 5.93239 17.8842 5.94477 19.0786 6.00652C20.1831 6.06401 20.7826 6.274 21.1819 6.45047C21.7106 6.68405 22.0875 6.96339 22.4837 7.41469C22.8802 7.86586 23.1256 8.2955 23.3314 8.89711C23.4865 9.35086 23.6713 10.033 23.7215 11.2899C23.7758 12.6488 23.7876 13.0569 23.7876 16.4972C23.7876 19.9374 23.7758 20.3457 23.7215 21.7045C23.671 22.9613 23.4865 23.6435 23.3314 24.0973C23.1261 24.699 22.8802 25.1273 22.4837 25.5782C22.0872 26.0294 21.7108 26.3086 21.1819 26.5423C20.783 26.7196 20.1831 26.929 19.0786 26.9865C17.8844 27.0483 17.5257 27.0617 14.501 27.0617C11.4762 27.0617 11.1176 27.0483 9.92355 26.9865C8.81906 26.9285 8.21957 26.7185 7.81992 26.5421C7.29135 26.3083 6.91367 26.0291 6.51718 25.578C6.1207 25.1268 5.87533 24.6982 5.6695 24.0963C5.51442 23.6424 5.32966 22.9603 5.27936 21.7034C5.2251 20.3445 5.21422 19.9364 5.21422 16.4939C5.21422 13.0516 5.2251 12.6456 5.27936 11.2866C5.32988 10.0298 5.51442 9.34764 5.6695 8.89324C5.87488 8.29164 6.1207 7.86199 6.5173 7.41082C6.91378 6.95965 7.29135 6.68031 7.82003 6.44621C8.21935 6.26897 8.81906 6.0595 9.92355 6.00175C10.9686 5.94799 11.3736 5.93188 13.4848 5.92917V5.93239ZM20.548 8.07275C19.7975 8.07275 19.1886 8.76498 19.1886 9.61911C19.1886 10.4731 19.7975 11.166 20.548 11.166C21.2985 11.166 21.9073 10.4731 21.9073 9.61911C21.9073 8.76511 21.2985 8.07224 20.548 8.07224V8.07275ZM14.501 9.88015C11.2884 9.88015 8.68357 12.8442 8.68357 16.5001C8.68357 20.156 11.2884 23.1187 14.501 23.1187C17.7138 23.1187 20.3177 20.156 20.3177 16.5001C20.3177 12.8443 17.7136 9.88015 14.5008 9.88015H14.501ZM14.501 12.2032C16.5864 12.2032 18.2771 14.1268 18.2771 16.5001C18.2771 18.8732 16.5864 20.7971 14.501 20.7971C12.4155 20.7971 10.725 18.8732 10.725 16.5001C10.725 14.1268 12.4155 12.2032 14.501 12.2032Z" fill="white"/>
</g>
<defs>
<radialGradient id="paint0_radial_3_34" cx="0" cy="0" r="1" gradientUnits="userSpaceOnUse" gradientTransform="translate(7.70312 35.5416) rotate(-90) scale(32.7055 26.7315)">
<stop stop-color="#FFDD55"/>
<stop offset="0.1" stop-color="#FFDD55"/>
<stop offset="0.5" stop-color="#FF543E"/>
<stop offset="1" stop-color="#C837AB"/>
</radialGradient>
<radialGradient id="paint1_radial_3_34" cx="0" cy="0" r="1" gradientUnits="userSpaceOnUse" gradientTransform="translate(-4.85761 2.37716) rotate(80.0236) scale(14.5552 53.1915)">
<stop stop-color="#3771C8"/>
<stop offset="0.128" stop-color="#3771C8"/>
<stop offset="1" stop-color="#6600FF" stop-opacity="0"/>
</radialGradient>
<clipPath id="clip0_3_34">
<rect width="29" height="33" fill="white"/>
</clipPath>
</defs>
</svg>
