<svg width="29" height="33" viewBox="0 0 29 33" fill="none" xmlns="http://www.w3.org/2000/svg">
<path d="M11.4659 0.004125L12.3468 0H16.6532L17.5353 0.004125L18.6397 0.017875L19.163 0.0275L19.668 0.042625L20.155 0.061875L20.6238 0.083875L21.0758 0.11275L21.5107 0.147125L21.9276 0.188375L22.33 0.23375C24.4325 0.50325 25.874 1.08075 26.9615 2.31825C28.049 3.55575 28.5565 5.19475 28.7934 7.58862L28.8345 8.0465L28.8695 8.52225L28.8997 9.01725L28.9239 9.53013L28.9541 10.3386L28.9686 10.9024L28.9843 11.7879L28.9952 13.046L29 14.3935L28.9988 18.9489L28.9952 19.9526L28.9831 21.2094L28.9746 21.8048L28.9613 22.3795L28.9444 22.9336L28.9251 23.4671L28.8997 23.9814L28.8695 24.4764L28.8333 24.9508L28.7934 25.4086C28.5565 27.8011 28.049 29.4415 26.9615 30.679C25.874 31.9165 24.4337 32.494 22.33 32.7635L21.9276 32.8103L21.5095 32.8501L21.0745 32.8845L20.6238 32.912L19.9133 32.9464L19.4179 32.9629L18.6397 32.9808L17.5341 32.9931L16.35 32.9986L12.3468 32.9973L11.4647 32.9931L10.3603 32.9794L9.83704 32.9697L9.33196 32.9546L8.845 32.9354L8.37617 32.9134L7.92425 32.8845L7.48925 32.8501L7.07238 32.8089L6.67 32.7635C4.5675 32.494 3.12596 31.9165 2.03846 30.679C0.950958 29.4415 0.443458 27.8025 0.206625 25.4086L0.165542 24.9508L0.1305 24.475L0.100292 23.98L0.076125 23.4671L0.0459167 22.6586L0.0314167 22.0949L0.0157083 21.2094L0.00483333 19.9512L0 18.6038L0.00120833 14.0484L0.00483333 13.0446L0.0169167 11.7879L0.025375 11.1925L0.0386667 10.6178L0.0555833 10.0636L0.0749167 9.53013L0.100292 9.01587L0.1305 8.52087L0.16675 8.0465L0.206625 7.58862C0.443458 5.19613 0.950958 3.55575 2.03846 2.31825C3.12596 1.08075 4.56629 0.50325 6.67 0.23375L7.07238 0.187L7.49046 0.147125L7.92546 0.11275L8.37617 0.08525L9.08667 0.050875L9.58208 0.034375L10.3603 0.0165L11.4659 0.004125ZM8.20458 10.0361H4.89375C5.05083 18.6161 8.82083 23.7724 15.4304 23.7724H15.805V18.8636C18.2338 19.1386 20.0704 21.1599 20.8075 23.7724H24.2392C23.2967 19.8674 20.8196 17.7086 19.2729 16.8836C20.8196 15.8661 22.9946 13.3911 23.5142 10.0361H20.3967C19.72 12.7586 17.7142 15.2336 15.805 15.4674V10.0361H12.6875V19.5511C10.7542 19.0011 8.31333 16.3336 8.20458 10.0361Z" fill="#0066FF"/>
</svg>
