<svg width="36" height="36" viewBox="0 0 36 36" fill="none" xmlns="http://www.w3.org/2000/svg">
<path d="M5.08159 0.518508C2.90698 0.545969 1.11831 2.35478 1.91245 5.593L4.90346 6.42116C5.1944 5.21433 6.39081 4.46132 7.52635 4.25753L7.66737 1.33366C6.83612 0.772883 5.92768 0.507668 5.08159 0.518508ZM11.5861 0.647863C10.8291 0.640636 9.96815 0.909465 9.04784 1.53384L8.91425 4.28138C10.0053 4.51913 10.9553 5.26275 11.3932 6.31277L13.7978 5.45642C14.8963 2.8722 13.7014 0.66882 11.5861 0.647863ZM28.6787 0.724465C27.9588 0.717238 27.2314 1.08218 27.4689 1.85181C27.9142 3.30724 29.2279 3.06081 29.7697 1.82724C30.0814 1.11036 29.3912 0.731691 28.6713 0.725187L28.6787 0.724465ZM20.3439 1.13277C19.4236 1.12265 18.5478 1.99273 19.3865 3.70181C16.8482 3.6505 17.8057 7.08456 19.7131 6.12343C18.7185 9.11523 22.7338 9.58495 22.1994 6.47898C24.5967 7.94452 25.6803 5.60095 23.2904 4.50396C26.4224 3.84128 23.8396 0.237394 21.8209 2.77536C21.8135 1.68198 21.0639 1.14144 20.3439 1.13349V1.13277ZM21.1084 3.9663C21.576 3.9663 21.9545 4.33341 21.9545 4.78579C21.9545 5.2389 21.576 5.60529 21.1084 5.60529C20.6408 5.60529 20.2697 5.2389 20.2697 4.78579C20.2697 4.33341 20.6408 3.9663 21.1084 3.9663ZM31.358 4.06097C30.0666 4.05302 29.2576 5.68622 31.8107 6.65097C30.4525 8.44316 34.2377 10.0764 33.6217 7.0412C36.7908 6.94726 34.8982 2.94085 33.0279 5.12183C32.5307 4.35943 31.8998 4.06386 31.358 4.06097ZM7.62284 5.61612C6.48729 5.91097 5.83862 7.02675 6.1355 8.11796C6.43534 9.22362 7.57831 9.86679 8.70643 9.5705C9.83456 9.28144 10.4951 8.16132 10.1908 7.06288C9.93847 6.13066 9.07753 5.52724 8.13495 5.54458C7.96425 5.55181 7.77128 5.57782 7.62284 5.61612ZM14.399 6.67987L11.6529 7.65546C11.6307 8.50097 11.2967 9.28866 10.7326 9.8957L12.833 11.9769C16.0764 12.2299 17.4642 8.41425 14.399 6.67987ZM1.14057 6.78105C-1.54607 8.89843 1.57846 14.3617 4.42104 13.4295L6.16518 10.3799C5.13503 9.62109 4.72757 8.82616 4.68823 7.76386L1.14057 6.78105ZM28.3967 8.28417C27.2834 8.29862 26.0365 8.99237 24.9455 10.5967L25.7916 14.1594C25.9029 14.1521 26.0142 14.1594 26.1256 14.1666C27.0533 14.2316 27.9439 14.6219 28.6045 15.2939L31.5287 13.2922C31.9295 10.4088 30.4303 8.32753 28.5006 8.28417H28.3967ZM34.2674 10.3148C32.7088 10.3582 32.6123 11.659 33.6959 12.49C34.9576 13.4439 35.915 10.2715 34.2674 10.3148ZM21.999 10.5678C19.0228 10.5967 16.4846 12.9019 18.7779 16.956L22.1994 16.9633C22.4443 15.6119 23.3275 14.8892 24.4334 14.4268L23.5576 10.7629C23.0455 10.6256 22.5111 10.5605 21.999 10.5678ZM9.60448 10.6978C8.92909 10.9941 8.083 11.0519 7.43729 10.9219L5.79409 13.8053C8.41698 16.8693 10.7623 15.1566 11.5713 12.649L9.60448 10.6978ZM31.7217 14.817L29.3615 16.4285C29.7178 17.2885 29.7252 18.2207 29.4209 19.0518L32.0928 20.591C35.9224 20.0562 36.2119 15.424 31.7217 14.817ZM25.8658 15.5035C25.4576 15.5035 25.0494 15.6047 24.6709 15.8142C23.5205 16.4646 23.1346 17.8738 23.7951 18.9939C24.4631 20.1141 25.9103 20.4971 27.0607 19.8467C28.2111 19.2035 28.6045 17.7871 27.9365 16.667C27.5209 15.966 26.801 15.5541 26.0365 15.5035H25.8658ZM4.67339 16.3273C2.098 16.3635 0.383543 18.6326 2.2019 22.2242L6.15034 23.431C6.71737 22.4193 7.72675 21.6822 8.92909 21.4582L8.70643 17.9316C7.36307 16.8115 5.92026 16.3057 4.67339 16.3273ZM13.1299 16.5297C12.1576 16.5441 11.074 17.0283 10.1092 18.1484L10.317 21.4293C11.3041 21.581 12.1799 22.0869 12.7959 22.8096L15.7053 21.2053C16.826 18.6254 15.2228 16.4935 13.1299 16.5297ZM18.5478 18.3002C16.2619 22.376 20.3959 25.2594 23.6096 24.132L24.4482 21.2342C23.6986 20.9379 23.0307 20.4031 22.6002 19.6732C22.3404 19.2396 22.192 18.7844 22.1252 18.3146L18.5478 18.3002ZM28.7306 20.2225C28.4635 20.5332 28.1369 20.8006 27.7584 21.0174C27.1424 21.357 26.4744 21.516 25.8139 21.5088L24.9232 24.5873C27.417 27.3334 31.6474 24.674 31.3432 21.7256L28.7306 20.2225ZM16.0541 22.5711L13.4861 23.9803C13.9092 25.1221 13.7014 26.4662 13.1076 27.4057L15.349 29.6965C20.3662 27.6658 18.9486 24.2838 16.0541 22.5711ZM9.69354 22.7301C8.21659 22.7301 7.03651 23.8863 7.03651 25.3172C7.03651 26.7553 8.21659 27.9043 9.69354 27.9043C11.1631 27.9043 12.3432 26.7553 12.3432 25.3172C12.3432 23.8863 11.1631 22.7301 9.69354 22.7301ZM1.76401 23.5033C-0.959743 26.2711 0.0569801 31.8283 5.02964 31.4164L6.94745 28.2006C5.86311 27.2394 5.47866 25.9748 5.70503 24.7101L1.76401 23.5033ZM33.3767 25.0932C32.2264 25.1004 30.2967 26.7625 32.3525 27.1889C32.1076 29.935 35.9967 27.5863 34.0596 26.1771C34.208 25.375 33.8592 25.0859 33.3767 25.0932ZM24.5299 26.8564C23.9361 26.8564 23.3201 27.3695 23.09 28.692C21.3162 26.4734 18.7705 29.0244 21.5685 30.6287C18.0357 32.392 21.7615 34.7478 23.1939 32.616C23.5131 36.1932 27.7064 33.9312 25.3537 31.8355C28.3373 32.3125 28.3299 29.5086 25.4279 29.5953C26.4373 28.2439 25.517 26.8492 24.5299 26.8564ZM12.1799 28.4101C10.8365 29.2629 9.508 29.5086 8.11268 28.9377L5.96479 32.5365C7.57089 36.251 14.9779 34.4949 14.8963 31.0478L14.8295 31.1129L12.1799 28.4101ZM23.7877 29.9133C24.2553 29.9133 24.6264 30.2818 24.6264 30.7299C24.6264 31.1851 24.2553 31.5537 23.7877 31.5537C23.3201 31.5537 22.949 31.1851 22.949 30.7299C22.949 30.2818 23.3201 29.9133 23.7877 29.9133ZM31.8107 30.4191C30.9053 30.3902 30.6084 31.8717 32.2857 32.7967C30.69 34.8779 34.4678 36.4605 34.0521 33.2881C36.776 33.7939 34.7646 30.6793 33.4213 31.7922C32.8424 30.8166 32.256 30.4336 31.8107 30.4191Z" fill="black"/>
</svg>
