<svg width="33" height="30" viewBox="0 0 33 30" fill="none" xmlns="http://www.w3.org/2000/svg">
<path d="M28.7411 6.90823C27.0853 6.08259 25.1543 5.90548 23.3624 6.4149C23.2751 4.68587 22.4897 3.05505 21.1691 1.86067C19.8484 0.666285 18.0938 0 16.2693 0C14.4447 0 12.6901 0.666285 11.3695 1.86067C10.0488 3.05505 9.26339 4.68587 9.17613 6.4149C7.38909 5.90432 5.46361 6.06436 3.79738 6.86198C2.57033 7.47385 1.55888 8.41305 0.887751 9.56377C0.216621 10.7145 -0.0848351 12.0264 0.0205577 13.3377C0.125951 14.649 0.633583 15.9024 1.48086 16.9433C2.32813 17.9842 3.47799 18.767 4.78863 19.1953C3.95206 20.3246 3.49854 21.6692 3.48863 23.0495C3.49585 23.4371 3.53387 23.8236 3.60238 24.2057C3.87604 25.7714 4.72737 27.1937 6.00436 28.2189C7.28135 29.244 8.90084 29.8051 10.5736 29.802C10.9199 29.8245 11.2674 29.8245 11.6136 29.802C13.4711 29.5244 15.1397 28.5668 16.2611 27.1349C17.3943 28.5437 19.0613 29.4782 20.9086 29.7403C21.2549 29.7628 21.6024 29.7628 21.9486 29.7403C23.2456 29.7389 24.5173 29.3997 25.6251 28.7598C26.7329 28.1199 27.6343 27.2037 28.231 26.1112C28.8277 25.0187 29.0969 23.7918 29.0092 22.5641C28.9215 21.3365 28.4803 20.1552 27.7336 19.1491C29.0507 18.7282 30.2082 17.9491 31.062 16.9088C31.9159 15.8685 32.4284 14.613 32.5358 13.2984C32.6432 11.9839 32.3407 10.6684 31.666 9.51574C30.9912 8.36307 29.9741 7.42411 28.7411 6.81573V6.90823ZM13.5636 3.9174C14.2896 3.2578 15.2559 2.8896 16.2611 2.8896C17.2663 2.8896 18.2327 3.2578 18.9586 3.9174C19.5129 4.44401 19.8892 5.1153 20.0397 5.84566C20.1902 6.57603 20.108 7.33237 19.8036 8.01823L19.3811 8.92781L18.3086 9.82198C17.6492 9.60725 16.9582 9.49278 16.2611 9.48281C15.3602 9.48363 14.4692 9.66213 13.6449 10.007L12.7349 8.01823C12.4195 7.33539 12.3299 6.57786 12.4779 5.84569C12.6258 5.11352 13.0044 4.44115 13.5636 3.9174ZM3.65113 14.4624C3.28836 13.7051 3.20885 12.853 3.42572 12.047C3.6426 11.241 4.14289 10.5293 4.84389 10.0296C5.54489 9.52993 6.40464 9.27214 7.281 9.29886C8.15737 9.32558 8.99789 9.63521 9.66363 10.1766L10.4599 10.8395L11.0286 12.0728C10.2146 13.1061 9.77042 14.3595 9.76113 15.6495C9.74186 15.8804 9.74186 16.1123 9.76113 16.3432H8.86738L7.50238 16.4666C6.72164 16.5447 5.93437 16.3947 5.24605 16.0365C4.55773 15.6783 4.00124 15.129 3.65113 14.4624ZM14.3761 23.8357C14.1805 24.6587 13.6919 25.3926 12.9926 25.9138C12.2934 26.435 11.4261 26.7117 10.537 26.6972C9.64785 26.6827 8.79113 26.378 8.11112 25.8343C7.43112 25.2907 6.96936 24.5413 6.80363 23.7124C6.78805 23.4968 6.78805 23.2805 6.80363 23.0649C6.80952 22.4383 6.98809 21.824 7.32162 21.2831C7.65515 20.7422 8.13202 20.2935 8.70488 19.9816L9.53363 19.4266L11.0124 19.2724C11.9444 20.5025 13.3211 21.3641 14.8799 21.6928L14.3761 23.8357ZM16.2611 18.7328C15.6183 18.7328 14.99 18.552 14.4555 18.2132C13.9211 17.8744 13.5045 17.3928 13.2585 16.8294C13.0125 16.266 12.9482 15.6461 13.0736 15.048C13.199 14.4498 13.5085 13.9004 13.963 13.4692C14.4176 13.038 14.9966 12.7444 15.6271 12.6254C16.2575 12.5064 16.911 12.5675 17.5049 12.8009C18.0987 13.0342 18.6063 13.4294 18.9634 13.9365C19.3205 14.4435 19.5111 15.0397 19.5111 15.6495C19.5111 16.4672 19.1687 17.2515 18.5592 17.8297C17.9497 18.408 17.1231 18.7328 16.2611 18.7328ZM25.7186 23.697C25.551 24.6376 25.0006 25.4782 24.186 26.0376C23.3715 26.597 22.3579 26.8305 21.3636 26.6878C20.5802 26.5831 19.8491 26.2538 19.2683 25.7441C18.6875 25.2344 18.2847 24.5686 18.1136 23.8357L17.8861 22.9107L18.2274 21.4924C19.7265 21.0292 20.997 20.0649 21.8024 18.7791L22.6149 19.2416H22.7611L23.8336 19.8428C24.5305 20.2203 25.0862 20.7941 25.424 21.4847C25.7617 22.1753 25.8647 22.9484 25.7186 23.697ZM28.8711 14.447C28.5515 15.0598 28.0585 15.5761 27.4472 15.9382C26.8359 16.3003 26.1305 16.4939 25.4099 16.4974H25.0199L23.9799 16.3432L22.7611 15.7111C22.7589 14.2122 22.1812 12.7654 21.1361 11.6411L21.8349 11.0707L22.8586 10.1766C23.5263 9.61346 24.3795 9.28806 25.2722 9.25608C26.1649 9.2241 27.0415 9.48754 27.752 10.0013C28.4625 10.515 28.9626 11.2471 29.1668 12.0722C29.371 12.8973 29.2664 13.764 28.8711 14.5241V14.447Z" fill="black"/>
</svg>
