<svg width="29" height="33" viewBox="0 0 29 33" fill="none" xmlns="http://www.w3.org/2000/svg">
<path d="M24.7739 4.80158C23.4378 3.27357 21.8464 2.06204 20.0925 1.23768C18.3386 0.413314 16.4573 -0.00739217 14.5583 9.82896e-05C6.60151 9.82896e-05 0.116583 7.34258 0.116583 16.3515C0.116583 19.239 0.786935 22.044 2.0402 24.519L0 33L7.65075 30.723C9.76382 32.0265 12.1392 32.7195 14.5583 32.7195C22.5151 32.7195 29 25.377 29 16.368C29 11.9956 27.499 7.88707 24.7739 4.80158ZM14.5583 29.9475C12.4015 29.9475 10.2884 29.2875 8.43769 28.05L8.0005 27.753L3.45377 29.106L4.66332 24.09L4.37186 23.5785C3.1736 21.412 2.53734 18.9078 2.53568 16.3515C2.53568 8.86057 7.92764 2.75559 14.5437 2.75559C17.7497 2.75559 20.7663 4.17459 23.0251 6.74858C24.1436 8.00911 25.0299 9.50846 25.6328 11.1597C26.2357 12.811 26.5431 14.5813 26.5372 16.368C26.5663 23.859 21.1744 29.9475 14.5583 29.9475ZM21.1452 19.7835C20.7809 19.5855 19.003 18.5955 18.6824 18.447C18.3472 18.315 18.1141 18.249 17.8663 18.645C17.6186 19.0575 16.9337 19.9815 16.7296 20.2455C16.5256 20.526 16.307 20.559 15.9427 20.3445C15.5784 20.1465 14.4126 19.701 13.0427 18.315C11.9643 17.226 11.2503 15.8896 11.0317 15.4771C10.8276 15.0646 11.0025 14.8501 11.192 14.6356C11.3523 14.4541 11.5563 14.1571 11.7312 13.9261C11.906 13.6951 11.9789 13.5136 12.0955 13.2496C12.2121 12.9691 12.1538 12.7381 12.0663 12.5401C11.9789 12.3421 11.2502 10.3291 10.9588 9.50407C10.6673 8.71207 10.3613 8.81107 10.1427 8.79457H9.44321C9.19548 8.79457 8.81658 8.89357 8.48141 9.30607C8.1608 9.71857 7.22814 10.7086 7.22814 12.7216C7.22814 14.7346 8.52513 16.6815 8.7 16.9455C8.87487 17.226 11.2503 21.351 14.8643 23.1165C15.7241 23.5455 16.3945 23.793 16.9191 23.9745C17.7789 24.288 18.5658 24.2385 19.1925 24.1395C19.892 24.024 21.3347 23.1495 21.6261 22.1925C21.9322 21.2355 21.9322 20.427 21.8302 20.2455C21.7281 20.064 21.5095 19.9815 21.1452 19.7835Z" fill="#60D669"/>
</svg>
